<svg xmlns="http://www.w3.org/2000/svg" width="760" height="260" viewBox="0 0 760 260"><defs><linearGradient id="water" x2="0.8" y2="1"><stop stop-color="#a7d8f4"/><stop offset="1" stop-color="#729edb"/></linearGradient><linearGradient id="glass" x2="1" y2="0.4"><stop stop-color="#fff" stop-opacity="0.9"/><stop offset="0.5" stop-color="#cce4ff" stop-opacity="0.4"/><stop offset="1" stop-color="#fff" stop-opacity="0.9"/></linearGradient><radialGradient id="drop"><stop stop-color="#fff"/><stop offset="1" stop-color="#83b2df"/></radialGradient></defs><ellipse cx="399" cy="237" rx="122" ry="13" fill="#cfdaeb" opacity=".55"/><path d="M292 43 L310 225 Q397 249 484 225 L502 43" fill="url(#glass)" stroke="#b3c6df" stroke-width="3"/><path d="M299 97 L313 220 Q397 242 481 220 L494 97Z" fill="url(#water)" opacity=".6"/><ellipse cx="397" cy="97" rx="97" ry="21" fill="#d6ecff"/><ellipse cx="397" cy="43" rx="105" ry="24" fill="#eef7ff" stroke="#b3c6df" stroke-width="3"/><rect x="344" y="72" width="48" height="42" rx="8" transform="rotate(-14 368 93)" fill="#fff" opacity=".85"/><rect x="413" y="70" width="43" height="40" rx="8" transform="rotate(14 434 90)" fill="#fff" opacity=".8"/><path d="M309 105.8 Q296.4 124 309 128.2 Q321.6 124 309 105.8Z" fill="url(#drop)" stroke="#87add3" stroke-width="1"/><path d="M320 152.0 Q302.0 178 320 184.0 Q338.0 178 320 152.0Z" fill="url(#drop)" stroke="#87add3" stroke-width="1"/><path d="M489 117.6 Q472.8 141 489 146.4 Q505.2 141 489 117.6Z" fill="url(#drop)" stroke="#87add3" stroke-width="1"/><path d="M477 180.8 Q464.4 199 477 203.2 Q489.6 199 477 180.8Z" fill="url(#drop)" stroke="#87add3" stroke-width="1"/><path d="M305 187.0 Q296.0 200 305 203.0 Q314.0 200 305 187.0Z" fill="url(#drop)" stroke="#87add3" stroke-width="1"/></svg>
